<svg class="diagram-root" style="background: #f5f6f6" xmlns="http://www.w3.org/2000/svg" xmlns:xlink="http://www.w3.org/1999/xlink"><style>.diagram-root { font-family: "Helvetica Neue", sans-serif; font-size: 12px; } .t { overflow: visible; } .t-bg { y: 40; fill: #fff;   } .th { fill: #005aa0;   } .tht { fill: #fff; font-size: 14px;  } .tf { fill: #323c46; overflow: visible; } .tf.pk { fill: #005aa0; font-weight: bold; } .tf.fk { font-weight: bold; } .ty { fill: #adb1b5; font-weight: normal; text-anchor: end; } .r { fill: transparent; stroke: #c3c3c3; stroke-width: 1; } .l { stroke: 1; } .i { fill: #c2c7ce; stroke: #c2c7ce; } .i.ix { fill: #afb3b6; stroke: #000; } .fa { fill: transparent; overflow: visible; } .fa .bg.hover { fill: #f7f7f7; } .c { cy: 12; r: 4; stroke: #d2d2dc; fill: #d2d2dc; } .hr { fill: transparent; stroke: #323c46; stroke-opacity: 0.035; stroke-width: 13; } .dc { stroke: #fa5a3c; fill: #fa5a3c; } .x { stroke: white; stroke-width: 1; } .hl .th { fill: #1b9bff; } .hl .tht {  } .fhl .bg { fill: #e7f4ff; } .fhls .bg {  } .r.hl { stroke: #1b9bff; } .dim { opacity: 0.25; }</style><g class="drawing-wrapper" transform="translate(18.18714285714286, -56.770000000000024) scale(1,1)"><g class="rs"><path d="M 292.34 293.77 m -1, 0 a 1,1 0 1,0 2,0 a 1,1 0 1,0 -2,0 M 292.34 293.77 m -0.5, 0 a 0.5,0.5 0 1,0 1,0 a 0.5,0.5 0 1,0 -1,0  M292.34 293.77 L292.34 293.77 280.34 293.77 M 292.34 299.77 m -1, 0 a 1,1 0 1,0 2,0 a 1,1 0 1,0 -2,0 M 292.34 299.77 m -0.5, 0 a 0.5,0.5 0 1,0 1,0 a 0.5,0.5 0 1,0 -1,0  M292.34 299.77 L292.34 299.77 285.34 293.77 292.34 287.77 M 292.34 287.77 m -1, 0 a 1,1 0 1,0 2,0 a 1,1 0 1,0 -2,0 M 292.34 287.77 m -0.5, 0 a 0.5,0.5 0 1,0 1,0 a 0.5,0.5 0 1,0 -1,0  M280.34 293.77 Q 265.33 293.77, 250.33 219.67 T 220.31 145.57 M 208.31 145.57 m -1, 0 a 1,1 0 1,0 2,0 a 1,1 0 1,0 -2,0 M 208.31 145.57 m -0.5, 0 a 0.5,0.5 0 1,0 1,0 a 0.5,0.5 0 1,0 -1,0  M208.31 145.57 L208.31 145.57 220.31 145.57 M214.31 151.57 L214.31 151.57 214.31 139.57" id="h880882256" class="r"></path><path d="M 582.02 172.18 m -1, 0 a 1,1 0 1,0 2,0 a 1,1 0 1,0 -2,0 M 582.02 172.18 m -0.5, 0 a 0.5,0.5 0 1,0 1,0 a 0.5,0.5 0 1,0 -1,0  M582.02 172.18 L582.02 172.18 570.02 172.18 M 582.02 178.18 m -1, 0 a 1,1 0 1,0 2,0 a 1,1 0 1,0 -2,0 M 582.02 178.18 m -0.5, 0 a 0.5,0.5 0 1,0 1,0 a 0.5,0.5 0 1,0 -1,0  M582.02 178.18 L582.02 178.18 575.02 172.18 582.02 166.18 M 582.02 166.18 m -1, 0 a 1,1 0 1,0 2,0 a 1,1 0 1,0 -2,0 M 582.02 166.18 m -0.5, 0 a 0.5,0.5 0 1,0 1,0 a 0.5,0.5 0 1,0 -1,0  M570.02 172.18 Q 554.4 172.18, 538.77 157.98 T 507.52 143.76999999999998 M 495.52 143.76999999999998 m -1, 0 a 1,1 0 1,0 2,0 a 1,1 0 1,0 -2,0 M 495.52 143.76999999999998 m -0.5, 0 a 0.5,0.5 0 1,0 1,0 a 0.5,0.5 0 1,0 -1,0  M495.52 143.76999999999998 L495.52 143.76999999999998 507.52 143.76999999999998 M501.52 149.76999999999998 L501.52 149.76999999999998 501.52 137.76999999999998" id="h4046038610" class="r"></path><path d="M 595 357.72 m -1, 0 a 1,1 0 1,0 2,0 a 1,1 0 1,0 -2,0 M 595 357.72 m -0.5, 0 a 0.5,0.5 0 1,0 1,0 a 0.5,0.5 0 1,0 -1,0  M595 357.72 L595 357.72 583 357.72 M 595 363.72 m -1, 0 a 1,1 0 1,0 2,0 a 1,1 0 1,0 -2,0 M 595 363.72 m -0.5, 0 a 0.5,0.5 0 1,0 1,0 a 0.5,0.5 0 1,0 -1,0  M595 363.72 L595 363.72 588 357.72 595 351.72 M 595 351.72 m -1, 0 a 1,1 0 1,0 2,0 a 1,1 0 1,0 -2,0 M 595 351.72 m -0.5, 0 a 0.5,0.5 0 1,0 1,0 a 0.5,0.5 0 1,0 -1,0  M583 357.72 Q 564.13 357.72, 545.26 250.75 T 507.52 143.76999999999998 M 495.52 143.76999999999998 m -1, 0 a 1,1 0 1,0 2,0 a 1,1 0 1,0 -2,0 M 495.52 143.76999999999998 m -0.5, 0 a 0.5,0.5 0 1,0 1,0 a 0.5,0.5 0 1,0 -1,0  M495.52 143.76999999999998 L495.52 143.76999999999998 507.52 143.76999999999998 M501.52 149.76999999999998 L501.52 149.76999999999998 501.52 137.76999999999998" id="h17068344" class="r"></path><path d="M 734.39 382.72 m -1, 0 a 1,1 0 1,0 2,0 a 1,1 0 1,0 -2,0 M 734.39 382.72 m -0.5, 0 a 0.5,0.5 0 1,0 1,0 a 0.5,0.5 0 1,0 -1,0  M734.39 382.72 L734.39 382.72 746.39 382.72 M 734.39 388.72 m -1, 0 a 1,1 0 1,0 2,0 a 1,1 0 1,0 -2,0 M 734.39 388.72 m -0.5, 0 a 0.5,0.5 0 1,0 1,0 a 0.5,0.5 0 1,0 -1,0  M734.39 388.72 L734.39 388.72 741.39 382.72 734.39 376.72 M 734.39 376.72 m -1, 0 a 1,1 0 1,0 2,0 a 1,1 0 1,0 -2,0 M 734.39 376.72 m -0.5, 0 a 0.5,0.5 0 1,0 1,0 a 0.5,0.5 0 1,0 -1,0  M746.39 382.72 C 811.5100000000001 382.72, 805.84 147.18, 755.84 147.18 M 743.84 147.18 m -1, 0 a 1,1 0 1,0 2,0 a 1,1 0 1,0 -2,0 M 743.84 147.18 m -0.5, 0 a 0.5,0.5 0 1,0 1,0 a 0.5,0.5 0 1,0 -1,0  M743.84 147.18 L743.84 147.18 755.84 147.18 M749.84 153.18 L749.84 153.18 749.84 141.18" id="h1319943120" class="r"></path></g><g class="hrs"></g><g class="ts"><svg width="203.18" height="225" x="292.34" y="86.77" id="h925389136" class="t"><rect height="40" width="203.18" class="th"></rect><text x="13" y="25" class="tht">polls</text><rect height="185" width="203.18" class="t-bg"></rect><text x="13" y="61" class="tf pk">id<tspan x="190.18" class="ty">SERIAL</tspan></text><path d="M7,14A2,2 0 0,1 5,12A2,2 0 0,1 7,10A2,2 0 0,1 9,12A2,2 0 0,1 7,14M12.65,10C11.83,7.67 9.61,6 7, 6A6, 6 0 0, 0 1, 12A6, 6 0 0, 0 7, 18C9.61, 18 11.83, 16.33 12.65, 14H17V18H21V14H23V10H12.65Z" class="i pk" transform="translate(127.494453125, 48) scale(0.65)"></path><text x="13" y="86" class="tf">name<tspan x="190.18" class="ty">VARCHAR(255)</tspan></text><text x="13" y="111" class="tf">description<tspan x="190.18" class="ty">VARCHAR(255)?</tspan></text><text x="13" y="136" class="tf">code<tspan x="190.18" class="ty">VARCHAR(255)</tspan></text><text x="13" y="161" class="tf">creation_date<tspan x="190.18" class="ty">TIMESTAMP</tspan></text><text x="13" y="186" class="tf">is_active<tspan x="190.18" class="ty">BOOLEAN</tspan></text><text x="13" y="211" class="tf fk">creator_id<tspan x="190.18" class="ty">INT</tspan></text></svg><svg width="204.5" height="100" x="3.81" y="88.57" id="h1414715034" class="t"><rect height="40" width="204.5" class="th"></rect><text x="13" y="25" class="tht">creators</text><rect height="60" width="204.5" class="t-bg"></rect><text x="13" y="61" class="tf pk">id<tspan x="191.5" class="ty">SERIAL</tspan></text><path d="M7,14A2,2 0 0,1 5,12A2,2 0 0,1 7,10A2,2 0 0,1 9,12A2,2 0 0,1 7,14M12.65,10C11.83,7.67 9.61,6 7, 6A6, 6 0 0, 0 1, 12A6, 6 0 0, 0 7, 18C9.61, 18 11.83, 16.33 12.65, 14H17V18H21V14H23V10H12.65Z" class="i pk" transform="translate(128.814453125, 48) scale(0.65)"></path><text x="13" y="86" class="tf">creator_email<tspan x="191.5" class="ty">VARCHAR(255)</tspan></text></svg><svg width="161.82" height="150" x="582.02" y="90.18" id="h988407728" class="t"><rect height="40" width="161.82" class="th"></rect><text x="13" y="25" class="tht">poll_options</text><rect height="110" width="161.82" class="t-bg"></rect><text x="13" y="61" class="tf pk">id<tspan x="148.82" class="ty">SERIAL</tspan></text><path d="M7,14A2,2 0 0,1 5,12A2,2 0 0,1 7,10A2,2 0 0,1 9,12A2,2 0 0,1 7,14M12.65,10C11.83,7.67 9.61,6 7, 6A6, 6 0 0, 0 1, 12A6, 6 0 0, 0 7, 18C9.61, 18 11.83, 16.33 12.65, 14H17V18H21V14H23V10H12.65Z" class="i pk" transform="translate(86.134453125, 48) scale(0.65)"></path><text x="13" y="86" class="tf fk">poll_id<tspan x="148.82" class="ty">INT</tspan></text><text x="13" y="111" class="tf">name<tspan x="148.82" class="ty">VARCHAR(255)</tspan></text><text x="13" y="136" class="tf">serial_order<tspan x="148.82" class="ty">INT</tspan></text></svg><svg width="139.39" height="175" x="595" y="275.72" id="h1635486186" class="t"><rect height="40" width="139.39" class="th"></rect><text x="13" y="25" class="tht">poll_results</text><rect height="135" width="139.39" class="t-bg"></rect><text x="13" y="61" class="tf pk">id<tspan x="126.38999999999999" class="ty">SERIAL</tspan></text><path d="M7,14A2,2 0 0,1 5,12A2,2 0 0,1 7,10A2,2 0 0,1 9,12A2,2 0 0,1 7,14M12.65,10C11.83,7.67 9.61,6 7, 6A6, 6 0 0, 0 1, 12A6, 6 0 0, 0 7, 18C9.61, 18 11.83, 16.33 12.65, 14H17V18H21V14H23V10H12.65Z" class="i pk" transform="translate(63.704453124999986, 48) scale(0.65)"></path><text x="13" y="86" class="tf fk">poll_id<tspan x="126.38999999999999" class="ty">INT</tspan></text><text x="13" y="111" class="tf fk">poll_option_id<tspan x="126.38999999999999" class="ty">INT</tspan></text><text x="13" y="136" class="tf">user_id<tspan x="126.38999999999999" class="ty">INT</tspan></text><text x="13" y="161" class="tf">rank<tspan x="126.38999999999999" class="ty">INT</tspan></text></svg></g></g><text class="qdbd-link" x="10" y="20">www.quickdatabasediagrams.com</text></svg>